<?xml version="1.0" encoding="UTF-8" standalone="no" ?>
<!DOCTYPE svg PUBLIC "-//W3C//DTD SVG 1.1//EN" "http://www.w3.org/Graphics/SVG/1.1/DTD/svg11.dtd">
<svg xmlns="http://www.w3.org/2000/svg" xmlns:xlink="http://www.w3.org/1999/xlink" version="1.1" width="640" height="480" viewBox="0 0 640 480" xml:space="preserve">
<desc>Created with Fabric.js 3.6.6</desc>
<defs>
</defs>
<g transform="matrix(1 0 0 1 147.72 493.66)"  >
<path style="stroke: none; stroke-width: 1; stroke-dasharray: none; stroke-linecap: butt; stroke-dashoffset: 0; stroke-linejoin: miter; stroke-miterlimit: 4; fill: rgb(44,204,237); fill-rule: nonzero; opacity: 1;"  transform=" translate(-183.44, -472.01)" d="M 177.67 511.271 L 144.933 477.895 C 141.713 474.613 141.713 469.414 144.933 466.132 L 177.67 432.758 C 180.89 429.474 185.989 429.474 189.209 432.758 L 221.946 466.132 C 225.167 469.414 225.167 474.613 221.946 477.895 L 189.209 511.271 C 186.257 514.553 180.89 514.553 177.67 511.271 Z" stroke-linecap="round" />
</g>
<g transform="matrix(1 0 0 1 1173.44 133.12)"  >
<circle style="stroke: none; stroke-width: 1; stroke-dasharray: none; stroke-linecap: butt; stroke-dashoffset: 0; stroke-linejoin: miter; stroke-miterlimit: 4; fill: rgb(109,236,248); fill-rule: nonzero; opacity: 1;"  cx="0" cy="0" r="34.859" />
</g>
<g transform="matrix(1 0 0 1 297.54 244.91)"  >
<circle style="stroke: none; stroke-width: 3; stroke-dasharray: none; stroke-linecap: butt; stroke-dashoffset: 0; stroke-linejoin: miter; stroke-miterlimit: 10; fill: rgb(215,235,43); fill-rule: nonzero; opacity: 1;"  cx="0" cy="0" r="25.344" />
</g>
<g transform="matrix(1 0 0 1 45.9 43.94)"  >
<path style="stroke: none; stroke-width: 1; stroke-dasharray: none; stroke-linecap: butt; stroke-dashoffset: 0; stroke-linejoin: miter; stroke-miterlimit: 4; fill: rgb(116,33,130); fill-rule: nonzero; opacity: 1;"  transform=" translate(-81.62, -21.29)" d="M 49.669 -9.998 C 51.03 -13.511 54.16 -16.03 57.882 -16.608 L 92.738 -22.023 C 96.459 -22.602 100.206 -21.149 102.568 -18.217 L 124.686 9.261 C 127.047 12.196 127.665 16.166 126.305 19.679 L 113.567 52.571 C 112.206 56.084 109.075 58.604 105.354 59.184 L 70.498 64.599 C 66.777 65.177 63.029 63.727 60.668 60.791 L 38.55 33.314 C 36.189 30.378 35.571 26.408 36.931 22.895 L 49.669 -9.998 Z" stroke-linecap="round" />
</g>
<g transform="matrix(1 0 0 1 1018.81 420.88)"  >
<path style="stroke: none; stroke-width: 1; stroke-dasharray: none; stroke-linecap: butt; stroke-dashoffset: 0; stroke-linejoin: miter; stroke-miterlimit: 4; fill: rgb(168,112,245); fill-rule: nonzero; opacity: 1;"  transform=" translate(-1054.53, -398.23)" d="M 1032.318 376.476 C 1033.264 374.034 1035.44 372.282 1038.028 371.88 L 1062.261 368.116 C 1064.848 367.713 1067.453 368.723 1069.095 370.762 L 1084.472 389.865 C 1086.114 391.906 1086.544 394.666 1085.598 397.108 L 1076.742 419.976 C 1075.796 422.418 1073.619 424.17 1071.032 424.574 L 1046.799 428.338 C 1044.212 428.74 1041.606 427.732 1039.965 425.691 L 1024.588 406.588 C 1022.946 404.547 1022.517 401.787 1023.462 399.344 L 1032.318 376.476 Z" stroke-linecap="round" />
</g>
<g transform="matrix(1 0 0 1 1432.1 757.75)"  >
<path style="stroke: none; stroke-width: 1; stroke-dasharray: none; stroke-linecap: butt; stroke-dashoffset: 0; stroke-linejoin: miter; stroke-miterlimit: 4; fill: rgb(115,237,218); fill-rule: nonzero; opacity: 1;"  transform=" translate(-1467.82, -735.1)" d="M 1396.93 665.688 C 1399.95 657.893 1406.894 652.305 1415.153 651.022 L 1492.489 639.008 C 1500.744 637.723 1509.057 640.947 1514.298 647.453 L 1563.372 708.418 C 1568.611 714.931 1569.981 723.739 1566.965 731.533 L 1538.703 804.512 C 1535.683 812.306 1528.736 817.897 1520.48 819.184 L 1443.144 831.199 C 1434.887 832.481 1426.573 829.264 1421.334 822.75 L 1372.26 761.786 C 1367.022 755.272 1365.65 746.463 1368.668 738.668 L 1396.93 665.688 Z" stroke-linecap="round" />
</g>
<g transform="matrix(1 0 0 1 250.62 820.31)"  >
<path style="stroke: none; stroke-width: 1; stroke-dasharray: none; stroke-linecap: butt; stroke-dashoffset: 0; stroke-linejoin: miter; stroke-miterlimit: 4; fill: rgb(162,71,225); fill-rule: nonzero; opacity: 1;"  transform=" translate(-286.34, -797.66)" d="M 264.129 775.914 C 265.075 773.472 267.251 771.72 269.839 771.318 L 294.072 767.554 C 296.659 767.151 299.264 768.161 300.906 770.2 L 316.283 789.303 C 317.925 791.344 318.355 794.104 317.409 796.546 L 308.553 819.414 C 307.607 821.856 305.43 823.608 302.843 824.012 L 278.61 827.776 C 276.023 828.178 273.417 827.17 271.776 825.129 L 256.399 806.026 C 254.757 803.985 254.328 801.225 255.273 798.782 L 264.129 775.914 Z" stroke-linecap="round" />
</g>
<g transform="matrix(1 0 0 1 710.21 805.88)"  >
<circle style="stroke: none; stroke-width: 3; stroke-dasharray: none; stroke-linecap: butt; stroke-dashoffset: 0; stroke-linejoin: miter; stroke-miterlimit: 10; fill: rgb(95,106,241); fill-rule: nonzero; opacity: 1;"  cx="0" cy="0" r="25.344" />
</g>
<g transform="matrix(1 0 0 1 905.77 91.23)"  >
<path style="stroke: none; stroke-width: 1; stroke-dasharray: none; stroke-linecap: butt; stroke-dashoffset: 0; stroke-linejoin: miter; stroke-miterlimit: 4; fill: rgb(250,181,246); fill-rule: nonzero; opacity: 1;"  transform=" translate(-941.49, -68.58)" d="M 929.895 57.225 C 930.389 55.951 931.524 55.036 932.875 54.826 L 945.523 52.862 C 946.873 52.652 948.232 53.179 949.089 54.243 L 957.115 64.213 C 957.972 65.278 958.196 66.719 957.702 67.993 L 953.08 79.928 C 952.587 81.203 951.45 82.117 950.1 82.328 L 937.453 84.293 C 936.103 84.502 934.742 83.976 933.886 82.911 L 925.86 72.941 C 925.004 71.876 924.78 70.435 925.273 69.16 L 929.895 57.225 Z" stroke-linecap="round" />
</g>
</svg>