<?xml version="1.0" encoding="UTF-8" standalone="no" ?>
<!DOCTYPE svg PUBLIC "-//W3C//DTD SVG 1.1//EN" "http://www.w3.org/Graphics/SVG/1.1/DTD/svg11.dtd">
<svg xmlns="http://www.w3.org/2000/svg" xmlns:xlink="http://www.w3.org/1999/xlink" version="1.1" width="640" height="480" viewBox="0 0 640 480" xml:space="preserve">
<desc>Created with Fabric.js 3.6.6</desc>
<defs>
</defs>
<g transform="matrix(1 0 0 1 119.15 443.17)"  >
<path style="stroke: none; stroke-width: 1; stroke-dasharray: none; stroke-linecap: butt; stroke-dashoffset: 0; stroke-linejoin: miter; stroke-miterlimit: 4; fill: rgb(68,225,198); fill-rule: nonzero; opacity: 1;"  transform=" translate(-155.15, -443.17)" d="M 153.37 455.293 L 143.264 444.989 C 142.269 443.976 142.269 442.371 143.264 441.358 L 153.37 431.055 C 154.364 430.042 155.938 430.042 156.932 431.055 L 167.038 441.358 C 168.032 442.371 168.032 443.976 167.038 444.989 L 156.932 455.293 C 156.02 456.306 154.364 456.306 153.37 455.293 Z" stroke-linecap="round" />
</g>
<g transform="matrix(1 0 0 1 1148.03 85.33)"  >
<circle style="stroke: none; stroke-width: 1; stroke-dasharray: none; stroke-linecap: butt; stroke-dashoffset: 0; stroke-linejoin: miter; stroke-miterlimit: 4; fill: rgb(251,171,255); fill-rule: nonzero; opacity: 1;"  cx="0" cy="0" r="9.723" />
</g>
<g transform="matrix(1 0 0 1 284.5 209.51)"  >
<circle style="stroke: none; stroke-width: 3; stroke-dasharray: none; stroke-linecap: butt; stroke-dashoffset: 0; stroke-linejoin: miter; stroke-miterlimit: 10; fill: rgb(230,243,65); fill-rule: nonzero; opacity: 1;"  cx="0" cy="0" r="12.587" />
</g>
<g transform="matrix(1 0 0 1 21.63 -1.66)"  >
<path style="stroke: none; stroke-width: 1; stroke-dasharray: none; stroke-linecap: butt; stroke-dashoffset: 0; stroke-linejoin: miter; stroke-miterlimit: 4; fill: rgb(104,226,237); fill-rule: nonzero; opacity: 1;"  transform=" translate(-57.63, 1.66)" d="M 42.564 -16.417 C 43.206 -18.074 44.682 -19.262 46.438 -19.535 L 62.879 -22.089 C 64.634 -22.362 66.401 -21.677 67.515 -20.294 L 77.948 -7.333 C 79.062 -5.949 79.353 -4.076 78.712 -2.419 L 72.703 13.096 C 72.061 14.753 70.585 15.941 68.829 16.215 L 52.388 18.769 C 50.633 19.042 48.865 18.358 47.752 16.973 L 37.319 4.012 C 36.205 2.628 35.914 0.755 36.555 -0.902 L 42.564 -16.417 Z" stroke-linecap="round" />
</g>
<g transform="matrix(1 0 0 1 1099.22 593.43)"  >
<path style="stroke: none; stroke-width: 1; stroke-dasharray: none; stroke-linecap: butt; stroke-dashoffset: 0; stroke-linejoin: miter; stroke-miterlimit: 4; fill: rgb(246,126,173); fill-rule: nonzero; opacity: 1;"  transform=" translate(-1135.22, -593.43)" d="M 1128.161 586.512 C 1128.462 585.735 1129.154 585.178 1129.977 585.05 L 1137.684 583.853 C 1138.506 583.725 1139.335 584.046 1139.857 584.695 L 1144.747 590.77 C 1145.269 591.419 1145.406 592.297 1145.105 593.073 L 1142.289 600.346 C 1141.988 601.123 1141.296 601.68 1140.473 601.808 L 1132.767 603.005 C 1131.944 603.133 1131.115 602.812 1130.593 602.163 L 1125.703 596.088 C 1125.181 595.439 1125.044 594.561 1125.345 593.785 L 1128.161 586.512 Z" stroke-linecap="round" />
</g>
<g transform="matrix(1 0 0 1 81.98 180.16)"  >
<path style="stroke: none; stroke-width: 1; stroke-dasharray: none; stroke-linecap: butt; stroke-dashoffset: 0; stroke-linejoin: miter; stroke-miterlimit: 4; fill: rgb(118,46,212); fill-rule: nonzero; opacity: 1;"  transform=" translate(-117.98, -180.16)" d="M 109.272 171.631 C 109.643 170.672 110.497 169.986 111.512 169.828 L 121.017 168.352 C 122.032 168.193 123.054 168.59 123.698 169.389 L 129.729 176.883 C 130.373 177.683 130.542 178.766 130.171 179.723 L 126.697 188.693 C 126.326 189.651 125.473 190.339 124.458 190.497 L 114.952 191.973 C 113.937 192.131 112.916 191.736 112.272 190.935 L 106.24 183.442 C 105.596 182.641 105.428 181.559 105.798 180.601 L 109.272 171.631 Z" stroke-linecap="round" />
</g>
<g transform="matrix(1 0 0 1 230.38 778.57)"  >
<path style="stroke: none; stroke-width: 1; stroke-dasharray: none; stroke-linecap: butt; stroke-dashoffset: 0; stroke-linejoin: miter; stroke-miterlimit: 4; fill: rgb(201,132,255); fill-rule: nonzero; opacity: 1;"  transform=" translate(-266.38, -778.57)" d="M 258.215 770.571 C 258.563 769.674 259.363 769.03 260.314 768.882 L 269.221 767.499 C 270.171 767.351 271.129 767.722 271.732 768.471 L 277.384 775.492 C 277.988 776.243 278.146 777.257 277.798 778.155 L 274.543 786.559 C 274.195 787.457 273.395 788.101 272.444 788.249 L 263.538 789.633 C 262.587 789.781 261.629 789.41 261.026 788.66 L 255.374 781.639 C 254.771 780.889 254.613 779.874 254.96 778.976 L 258.215 770.571 Z" stroke-linecap="round" />
</g>
<g transform="matrix(1 0 0 1 694.58 767.88)"  >
<circle style="stroke: none; stroke-width: 3; stroke-dasharray: none; stroke-linecap: butt; stroke-dashoffset: 0; stroke-linejoin: miter; stroke-miterlimit: 10; fill: rgb(55,188,241); fill-rule: nonzero; opacity: 1;"  cx="0" cy="0" r="9.997" />
</g>
<g transform="matrix(1 0 0 1 1360.26 269.1)"  >
<path style="stroke: none; stroke-width: 1; stroke-dasharray: none; stroke-linecap: butt; stroke-dashoffset: 0; stroke-linejoin: miter; stroke-miterlimit: 4; fill: rgb(201,194,187); fill-rule: nonzero; opacity: 1;"  transform=" translate(-1396.26, -269.1)" d="M 1390.234 263.204 C 1390.491 262.543 1391.08 262.067 1391.782 261.958 L 1398.352 260.938 C 1399.053 260.829 1399.759 261.103 1400.204 261.655 L 1404.373 266.834 C 1404.818 267.387 1404.934 268.136 1404.678 268.798 L 1402.277 274.997 C 1402.021 275.659 1401.43 276.134 1400.729 276.244 L 1394.16 277.265 C 1393.459 277.373 1392.752 277.1 1392.307 276.547 L 1388.138 271.368 C 1387.693 270.815 1387.577 270.066 1387.833 269.404 L 1390.234 263.204 Z" stroke-linecap="round" />
</g>
</svg>